# Blender v2.79 (sub 0) OBJ File: 'leftsoccergoal_unit.blend'
# www.blender.org
mtllib leftsoccergoal.mtl
o NetInner_NetInnerCube
v -0.500000 0.000000 0.000000
v -0.500000 0.954545 0.000000
v -0.500000 0.000000 -0.882353
v -0.500000 0.954545 -0.882353
v 0.500000 0.000000 0.000000
v 0.500000 0.954545 0.000000
v 0.500000 0.000000 -0.882353
v 0.500000 0.954545 -0.882353
vt 0.177557 0.004716
vt 0.000065 0.253204
vt 0.000065 0.004716
vt 0.822443 0.004716
vt 0.177557 0.253204
vt 0.999935 0.004716
vt 0.822443 0.253204
vt 0.822443 0.430696
vt 0.999935 0.253204
vt 0.177557 0.430696
vn 1.0000 0.0000 0.0000
vn 0.0000 0.0000 1.0000
vn -1.0000 0.0000 0.0000
vn 0.0000 -1.0000 0.0000
usemtl naogoalnet
s off
f 3/1/1 2/2/1 1/3/1
f 7/4/2 4/5/2 3/1/2
f 5/6/3 8/7/3 7/4/3
f 6/8/4 4/5/4 8/7/4
f 3/1/1 4/5/1 2/2/1
f 7/4/2 8/7/2 4/5/2
f 5/6/3 6/9/3 8/7/3
f 6/8/4 2/10/4 4/5/4
o NetOuter_NetOuterCube
v -0.500000 0.000000 0.000000
v -0.500000 0.954545 0.000000
v -0.500000 0.000000 -0.882353
v -0.500000 0.954545 -0.882353
v 0.500000 0.000000 0.000000
v 0.500000 0.954545 0.000000
v 0.500000 0.000000 -0.882353
v 0.500000 0.954545 -0.882353
vt 0.999935 0.253204
vt 0.822443 0.004716
vt 0.999935 0.004716
vt 0.822443 0.253204
vt 0.177557 0.004716
vt 0.177557 0.253204
vt 0.000065 0.004716
vt 0.177557 0.430696
vt 0.000065 0.253204
vt 0.822443 0.430696
vn -1.0000 0.0000 0.0000
vn 0.0000 0.0000 -1.0000
vn 1.0000 0.0000 0.0000
vn 0.0000 1.0000 0.0000
usemtl naogoalnet
s off
f 10/11/5 11/12/5 9/13/5
f 12/14/6 15/15/6 11/12/6
f 16/16/7 13/17/7 15/15/7
f 12/14/8 14/18/8 16/16/8
f 10/11/5 12/14/5 11/12/5
f 12/14/6 16/16/6 15/15/6
f 16/16/7 14/19/7 13/17/7
f 12/14/8 10/20/8 14/18/8
o Groundring_GroundringTube
v -0.508725 0.005458 0.000000
v -0.507422 0.011793 0.000000
v -0.505393 0.016821 0.000000
v -0.502835 0.020050 0.000000
v -0.500000 0.021162 0.000000
v -0.497165 0.020050 0.000000
v -0.494607 0.016821 0.000000
v -0.492578 0.011793 0.000000
v -0.491275 0.005458 0.000000
v -0.490826 -0.001565 0.000000
v -0.509174 -0.001565 0.000000
v -0.506170 0.005458 -0.902132
v -0.505248 0.011793 -0.899178
v -0.503813 0.016821 -0.894577
v -0.502005 0.020050 -0.888780
v -0.500000 0.021162 -0.882353
v -0.497995 0.020050 -0.875926
v -0.496187 0.016821 -0.870129
v -0.494752 0.011793 -0.865528
v -0.493830 0.005458 -0.862574
v -0.493513 -0.001565 -0.861556
v -0.506487 -0.001565 -0.903150
v 0.506170 0.005458 -0.902132
v 0.505248 0.011793 -0.899178
v 0.503813 0.016821 -0.894577
v 0.502005 0.020050 -0.888780
v 0.500000 0.021162 -0.882353
v 0.497995 0.020050 -0.875926
v 0.496187 0.016821 -0.870129
v 0.494752 0.011793 -0.865528
v 0.493830 0.005458 -0.862574
v 0.493513 -0.001565 -0.861556
v 0.506487 -0.001565 -0.903150
v 0.508725 0.005458 0.000000
v 0.507422 0.011793 0.000000
v 0.505393 0.016821 0.000000
v 0.502835 0.020050 0.000000
v 0.500000 0.021162 0.000000
v 0.497165 0.020050 0.000000
v 0.494608 0.016821 0.000000
v 0.492578 0.011793 0.000000
v 0.491275 0.005458 0.000000
v 0.490826 -0.001565 0.000000
v 0.509174 -0.001565 0.000000
vn -0.9980 0.0638 -0.0028
vn -0.9795 0.2014 -0.0024
vn -0.9273 0.3743 -0.0016
vn -0.7838 0.6210 -0.0007
vn -0.3653 0.9309 0.0000
vn 0.3652 0.9309 -0.0003
vn 0.7838 0.6210 -0.0014
vn 0.9273 0.3743 -0.0023
vn 0.9795 0.2015 -0.0029
vn 0.9980 0.0638 -0.0031
vn 0.0000 0.1434 -0.9897
vn 0.0000 0.4226 -0.9063
vn 0.0000 0.6751 -0.7377
vn 0.0000 0.8737 -0.4865
vn 0.0000 0.9853 -0.1705
vn 0.0000 0.9853 0.1705
vn 0.0000 0.8737 0.4865
vn 0.0000 0.6751 0.7377
vn 0.0000 0.4226 0.9063
vn 0.0000 0.1434 0.9897
vn 0.9990 0.0456 -0.0030
vn 0.9894 0.1452 -0.0028
vn 0.9610 0.2765 -0.0023
vn 0.8713 0.4908 -0.0015
vn 0.4841 0.8750 -0.0005
vn -0.4852 0.8744 0.0000
vn -0.8731 0.4876 -0.0008
vn -0.9620 0.2730 -0.0017
vn -0.9897 0.1428 -0.0025
vn -0.9990 0.0447 -0.0030
vn -0.9990 0.0456 -0.0030
vn -0.9894 0.1452 -0.0028
vn -0.9610 0.2765 -0.0023
vn -0.8713 0.4908 -0.0015
vn -0.4841 0.8750 -0.0005
vn 0.4852 0.8744 0.0000
vn 0.8731 0.4876 -0.0008
vn 0.9620 0.2730 -0.0017
vn 0.9897 0.1428 -0.0025
vn 0.9990 0.0447 -0.0030
vn 0.9980 0.0638 -0.0028
vn 0.9795 0.2014 -0.0024
vn 0.9273 0.3743 -0.0016
vn 0.7838 0.6210 -0.0007
vn 0.3653 0.9309 0.0000
vn -0.3652 0.9309 -0.0003
vn -0.7838 0.6210 -0.0014
vn -0.9273 0.3743 -0.0023
vn -0.9795 0.2015 -0.0029
vn -0.9980 0.0638 -0.0031
usemtl yellow
s off
f 28//9 27//9 17//9
f 29//10 17//10 18//10
f 30//11 18//11 19//11
f 31//12 19//12 20//12
f 32//13 20//13 21//13
f 33//14 21//14 22//14
f 34//15 22//15 23//15
f 35//16 23//16 24//16
f 36//17 24//17 25//17
f 37//18 25//18 26//18
f 28//19 49//19 38//19
f 40//20 28//20 29//20
f 41//21 29//21 30//21
f 31//22 41//22 30//22
f 43//23 31//23 32//23
f 44//24 32//24 33//24
f 45//25 33//25 34//25
f 46//26 34//26 35//26
f 47//27 35//27 36//27
f 48//28 36//28 37//28
f 39//29 60//29 49//29
f 40//30 50//30 39//30
f 41//31 51//31 40//31
f 42//32 52//32 41//32
f 43//33 53//33 42//33
f 44//34 54//34 43//34
f 45//35 55//35 44//35
f 46//36 56//36 45//36
f 47//37 57//37 46//37
f 48//38 58//38 47//38
f 28//39 38//39 27//39
f 29//40 28//40 17//40
f 30//41 29//41 18//41
f 31//42 30//42 19//42
f 32//43 31//43 20//43
f 33//44 32//44 21//44
f 34//45 33//45 22//45
f 35//46 34//46 23//46
f 36//47 35//47 24//47
f 37//48 36//48 25//48
f 28//19 39//19 49//19
f 40//20 39//20 28//20
f 41//21 40//21 29//21
f 31//22 42//22 41//22
f 43//23 42//23 31//23
f 44//24 43//24 32//24
f 45//25 44//25 33//25
f 46//26 45//26 34//26
f 47//27 46//27 35//27
f 48//28 47//28 36//28
f 39//49 50//49 60//49
f 40//50 51//50 50//50
f 41//51 52//51 51//51
f 42//52 53//52 52//52
f 43//53 54//53 53//53
f 44//54 55//54 54//54
f 45//55 56//55 55//55
f 46//56 57//56 56//56
f 47//57 58//57 57//57
f 48//58 59//58 58//58
o Goalposts_GoalpostTube
v -0.503186 0.000000 -0.057930
v -0.506276 0.000000 -0.055276
v -0.509175 0.000000 -0.050943
v -0.511794 0.000000 -0.045061
v -0.514056 0.000000 -0.037811
v -0.515891 0.000000 -0.029412
v -0.517242 0.000000 -0.020119
v -0.518070 0.000000 -0.010215
v -0.518349 0.000000 -0.000000
v -0.518070 0.000000 0.010215
v -0.517242 0.000000 0.020119
v -0.515891 0.000000 0.029412
v -0.514056 0.000000 0.037811
v -0.511794 0.000000 0.045061
v -0.509175 0.000000 0.050943
v -0.506276 0.000000 0.055276
v -0.503186 0.000000 0.057930
v -0.500000 0.000000 0.058824
v -0.496814 0.000000 0.057930
v -0.493725 0.000000 0.055276
v -0.490826 0.000000 0.050943
v -0.488206 0.000000 0.045061
v -0.485944 0.000000 0.037811
v -0.484110 0.000000 0.029412
v -0.482758 0.000000 0.020119
v -0.481930 0.000000 0.010215
v -0.481652 0.000000 0.000000
v -0.481930 0.000000 -0.010215
v -0.482758 0.000000 -0.020119
v -0.484110 0.000000 -0.029412
v -0.485944 0.000000 -0.037811
v -0.488206 0.000000 -0.045061
v -0.490826 0.000000 -0.050943
v -0.493725 0.000000 -0.055276
v -0.496814 0.000000 -0.057930
v -0.500000 0.000000 -0.058824
v -0.502253 0.960127 -0.057930
v -0.504438 0.965538 -0.055276
v -0.506487 0.970616 -0.050943
v -0.508340 0.975206 -0.045061
v -0.509939 0.979167 -0.037811
v -0.511236 0.982381 -0.029412
v -0.512192 0.984748 -0.020119
v -0.512778 0.986199 -0.010215
v -0.512975 0.986687 -0.000000
v -0.512778 0.986199 0.010215
v -0.512192 0.984748 0.020119
v -0.511236 0.982381 0.029412
v -0.509939 0.979167 0.037811
v -0.508340 0.975206 0.045061
v -0.506487 0.970616 0.050943
v -0.504438 0.965539 0.055276
v -0.502253 0.960127 0.057930
v -0.500000 0.954546 0.058824
v -0.497747 0.948964 0.057930
v -0.495563 0.943553 0.055276
v -0.493513 0.938475 0.050943
v -0.491660 0.933885 0.045061
v -0.490061 0.929924 0.037811
v -0.488764 0.926710 0.029412
v -0.487808 0.924343 0.020119
v -0.487223 0.922893 0.010215
v -0.487026 0.922404 0.000000
v -0.487223 0.922893 -0.010215
v -0.487808 0.924343 -0.020119
v -0.488764 0.926710 -0.029412
v -0.490061 0.929924 -0.037811
v -0.491660 0.933885 -0.045061
v -0.493513 0.938475 -0.050943
v -0.495563 0.943553 -0.055276
v -0.497747 0.948964 -0.057930
v -0.500000 0.954545 -0.058824
v 0.502253 0.960127 -0.057930
v 0.504437 0.965538 -0.055276
v 0.506487 0.970616 -0.050943
v 0.508340 0.975206 -0.045061
v 0.509939 0.979167 -0.037811
v 0.511236 0.982381 -0.029412
v 0.512192 0.984748 -0.020119
v 0.512777 0.986199 -0.010215
v 0.512974 0.986687 -0.000000
v 0.512777 0.986199 0.010215
v 0.512192 0.984748 0.020119
v 0.511236 0.982381 0.029412
v 0.509939 0.979167 0.037811
v 0.508340 0.975206 0.045061
v 0.506487 0.970616 0.050943
v 0.504437 0.965539 0.055276
v 0.502253 0.960127 0.057930
v 0.500000 0.954546 0.058824
v 0.497747 0.948964 0.057930
v 0.495562 0.943553 0.055276
v 0.493513 0.938475 0.050943
v 0.491660 0.933885 0.045061
v 0.490061 0.929924 0.037811
v 0.488764 0.926710 0.029412
v 0.487808 0.924343 0.020119
v 0.487223 0.922893 0.010215
v 0.487025 0.922404 0.000000
v 0.487223 0.922893 -0.010215
v 0.487808 0.924343 -0.020119
v 0.488764 0.926710 -0.029412
v 0.490061 0.929924 -0.037811
v 0.491660 0.933885 -0.045061
v 0.493513 0.938475 -0.050943
v 0.495562 0.943553 -0.055276
v 0.497747 0.948964 -0.057930
v 0.500000 0.954545 -0.058824
v 0.503186 0.000000 -0.057930
v 0.506275 0.000000 -0.055276
v 0.509174 0.000000 -0.050943
v 0.511794 0.000000 -0.045061
v 0.514056 0.000000 -0.037811
v 0.515890 0.000000 -0.029412
v 0.517242 0.000000 -0.020119
v 0.518070 0.000000 -0.010215
v 0.518348 0.000000 -0.000000
v 0.518070 0.000000 0.010215
v 0.517242 0.000000 0.020119
v 0.515890 0.000000 0.029412
v 0.514056 0.000000 0.037811
v 0.511794 0.000000 0.045061
v 0.509174 0.000000 0.050943
v 0.506275 0.000000 0.055276
v 0.503186 0.000000 0.057930
v 0.500000 0.000000 0.058824
v 0.496814 0.000000 0.057930
v 0.493724 0.000000 0.055276
v 0.490826 0.000000 0.050943
v 0.488206 0.000000 0.045061
v 0.485944 0.000000 0.037811
v 0.484109 0.000000 0.029412
v 0.482758 0.000000 0.020119
v 0.481930 0.000000 0.010215
v 0.481651 0.000000 0.000000
v 0.481930 0.000000 -0.010215
v 0.482758 0.000000 -0.020119
v 0.484109 0.000000 -0.029412
v 0.485944 0.000000 -0.037811
v 0.488206 0.000000 -0.045061
v 0.490826 0.000000 -0.050943
v 0.493724 0.000000 -0.055276
v 0.496814 0.000000 -0.057930
v 0.500000 0.000000 -0.058824
vn -0.2701 0.0000 -0.9628
vn -0.6516 0.0006 -0.7586
vn -0.8312 0.0016 -0.5560
vn -0.9135 0.0025 -0.4069
vn -0.9546 0.0034 -0.2978
vn -0.9770 0.0041 -0.2134
vn -0.9896 0.0047 -0.1439
vn -0.9965 0.0051 -0.0833
vn -0.9996 0.0054 -0.0273
vn -0.9996 0.0054 0.0273
vn -0.9965 0.0051 0.0833
vn -0.9896 0.0047 0.1439
vn -0.9770 0.0041 0.2134
vn -0.9546 0.0034 0.2978
vn -0.9135 0.0025 0.4069
vn -0.8312 0.0016 0.5560
vn -0.6516 0.0006 0.7586
vn -0.2701 -0.0000 0.9628
vn 0.2701 0.0003 0.9628
vn 0.6516 0.0013 0.7586
vn 0.8312 0.0024 0.5560
vn 0.9135 0.0034 0.4069
vn 0.9546 0.0042 0.2978
vn 0.9770 0.0049 0.2134
vn 0.9896 0.0054 0.1439
vn 0.9965 0.0057 0.0833
vn 0.9996 0.0058 0.0273
vn 0.9996 0.0058 -0.0273
vn 0.9965 0.0057 -0.0833
vn 0.9896 0.0054 -0.1439
vn 0.9770 0.0049 -0.2134
vn 0.9546 0.0042 -0.2978
vn 0.9135 0.0034 -0.4069
vn 0.8312 0.0024 -0.5560
vn 0.6516 0.0013 -0.7586
vn 0.2701 0.0003 -0.9628
vn 0.0000 0.1581 -0.9874
vn 0.0000 0.4403 -0.8979
vn 0.0000 0.6491 -0.7607
vn 0.0000 0.7884 -0.6152
vn 0.0000 0.8776 -0.4795
vn 0.0000 0.9340 -0.3574
vn 0.0000 0.9690 -0.2469
vn 0.0000 0.9895 -0.1449
vn 0.0000 0.9989 -0.0478
vn 0.0000 0.9989 0.0477
vn 0.0000 0.9895 0.1449
vn 0.0000 0.9690 0.2469
vn 0.0000 0.9340 0.3573
vn 0.0000 0.8775 0.4795
vn 0.0000 0.7884 0.6152
vn 0.0000 0.6492 0.7606
vn 0.0000 0.4403 0.8979
vn 0.0000 0.1581 0.9874
vn 0.0000 -0.1581 0.9874
vn 0.0000 -0.4403 0.8978
vn 0.0000 -0.6492 0.7607
vn 0.0000 -0.7884 0.6152
vn 0.0000 -0.8775 0.4795
vn 0.0000 -0.9340 0.3573
vn 0.0000 -0.9690 0.2469
vn 0.0000 -0.9895 0.1449
vn 0.0000 -0.9989 0.0477
vn 0.0000 -0.9989 -0.0478
vn 0.0000 -0.9895 -0.1449
vn 0.0000 -0.9690 -0.2469
vn 0.0000 -0.9340 -0.3573
vn 0.0000 -0.8776 -0.4795
vn 0.0000 -0.7884 -0.6152
vn 0.0000 -0.6492 -0.7606
vn 0.0000 -0.4403 -0.8979
vn 0.0000 -0.1581 -0.9874
vn 0.3679 0.0004 -0.9298
vn 0.7706 0.0015 -0.6373
vn 0.9028 0.0025 -0.4300
vn 0.9530 0.0034 -0.3028
vn 0.9760 0.0041 -0.2175
vn 0.9880 0.0047 -0.1544
vn 0.9946 0.0051 -0.1036
vn 0.9982 0.0054 -0.0598
vn 0.9998 0.0054 -0.0196
vn 0.9998 0.0054 0.0196
vn 0.9982 0.0054 0.0598
vn 0.9946 0.0051 0.1036
vn 0.9880 0.0047 0.1544
vn 0.9760 0.0041 0.2175
vn 0.9530 0.0034 0.3028
vn 0.9028 0.0025 0.4300
vn 0.7706 0.0015 0.6373
vn 0.3680 0.0004 0.9298
vn -0.3687 -0.0000 0.9295
vn -0.7728 0.0008 0.6346
vn -0.9048 0.0018 0.4259
vn -0.9544 0.0027 0.2985
vn -0.9769 0.0036 0.2135
vn -0.9885 0.0044 0.1510
vn -0.9949 0.0050 0.1011
vn -0.9983 0.0055 0.0582
vn -0.9998 0.0057 0.0190
vn -0.9998 0.0057 -0.0190
vn -0.9983 0.0055 -0.0582
vn -0.9949 0.0050 -0.1011
vn -0.9885 0.0044 -0.1510
vn -0.9769 0.0036 -0.2135
vn -0.9544 0.0027 -0.2985
vn -0.9048 0.0018 -0.4259
vn -0.7728 0.0008 -0.6346
vn -0.3687 0.0000 -0.9295
vn -0.3679 0.0004 -0.9298
vn -0.7706 0.0015 -0.6373
vn -0.9028 0.0025 -0.4300
vn -0.9530 0.0034 -0.3028
vn -0.9760 0.0041 -0.2175
vn -0.9880 0.0047 -0.1544
vn -0.9946 0.0051 -0.1036
vn -0.9982 0.0054 -0.0598
vn -0.9998 0.0054 -0.0196
vn -0.9998 0.0054 0.0196
vn -0.9982 0.0054 0.0598
vn -0.9946 0.0051 0.1036
vn -0.9880 0.0047 0.1544
vn -0.9760 0.0041 0.2175
vn -0.9530 0.0034 0.3028
vn -0.9028 0.0025 0.4300
vn -0.7706 0.0015 0.6373
vn -0.3679 0.0004 0.9298
vn 0.3687 -0.0000 0.9295
vn 0.7728 0.0008 0.6346
vn 0.9048 0.0018 0.4259
vn 0.9544 0.0027 0.2985
vn 0.9769 0.0036 0.2135
vn 0.9885 0.0044 0.1510
vn 0.9949 0.0050 0.1011
vn 0.9983 0.0055 0.0582
vn 0.9998 0.0057 0.0190
vn 0.9998 0.0057 -0.0190
vn 0.9983 0.0055 -0.0582
vn 0.9949 0.0050 -0.1011
vn 0.9885 0.0044 -0.1510
vn 0.9769 0.0036 -0.2135
vn 0.9544 0.0027 -0.2985
vn 0.9048 0.0018 -0.4259
vn 0.7728 0.0008 -0.6346
vn 0.3687 0.0000 -0.9295
vn 0.0000 0.4403 -0.8978
vn 0.0000 0.6492 -0.7607
vn 0.0000 0.8775 -0.4795
vn 0.0000 0.9340 -0.3573
vn 0.0000 0.9989 -0.0477
vn 0.0000 0.9989 0.0478
vn 0.0000 0.9340 0.3574
vn 0.0000 0.8776 0.4795
vn 0.0000 -0.4403 0.8979
vn 0.0000 -0.8776 0.4795
vn 0.0000 -0.9989 0.0478
vn 0.0000 -0.8775 -0.4795
vn 0.0000 -0.6492 -0.7607
vn 0.0000 -0.4403 -0.8978
vn 0.2701 0.0000 -0.9628
vn 0.6516 0.0006 -0.7586
vn 0.8312 0.0016 -0.5560
vn 0.9135 0.0025 -0.4069
vn 0.9546 0.0034 -0.2978
vn 0.9770 0.0041 -0.2134
vn 0.9896 0.0047 -0.1439
vn 0.9965 0.0051 -0.0833
vn 0.9996 0.0054 -0.0273
vn 0.9996 0.0054 0.0273
vn 0.9965 0.0051 0.0833
vn 0.9896 0.0047 0.1439
vn 0.9770 0.0041 0.2134
vn 0.9546 0.0034 0.2978
vn 0.9135 0.0025 0.4069
vn 0.8312 0.0016 0.5560
vn 0.6516 0.0006 0.7586
vn 0.2701 0.0000 0.9628
vn -0.2701 0.0003 0.9628
vn -0.6516 0.0013 0.7586
vn -0.8312 0.0024 0.5560
vn -0.9135 0.0034 0.4069
vn -0.9546 0.0042 0.2978
vn -0.9770 0.0049 0.2134
vn -0.9896 0.0054 0.1439
vn -0.9965 0.0057 0.0833
vn -0.9996 0.0058 0.0273
vn -0.9996 0.0058 -0.0273
vn -0.9965 0.0057 -0.0833
vn -0.9896 0.0054 -0.1439
vn -0.9770 0.0049 -0.2134
vn -0.9546 0.0042 -0.2978
vn -0.9135 0.0034 -0.4069
vn -0.8312 0.0024 -0.5560
vn -0.6516 0.0013 -0.7586
vn -0.2701 0.0003 -0.9628
usemtl yellow
s off
f 61//59 132//59 96//59
f 62//60 97//60 61//60
f 63//61 98//61 62//61
f 64//62 99//62 63//62
f 65//63 100//63 64//63
f 66//64 101//64 65//64
f 67//65 102//65 66//65
f 68//66 103//66 67//66
f 69//67 104//67 68//67
f 106//68 69//68 70//68
f 107//69 70//69 71//69
f 108//70 71//70 72//70
f 109//71 72//71 73//71
f 110//72 73//72 74//72
f 111//73 74//73 75//73
f 112//74 75//74 76//74
f 113//75 76//75 77//75
f 114//76 77//76 78//76
f 115//77 78//77 79//77
f 116//78 79//78 80//78
f 117//79 80//79 81//79
f 118//80 81//80 82//80
f 119//81 82//81 83//81
f 120//82 83//82 84//82
f 121//83 84//83 85//83
f 122//84 85//84 86//84
f 123//85 86//85 87//85
f 88//86 123//86 87//86
f 89//87 124//87 88//87
f 90//88 125//88 89//88
f 91//89 126//89 90//89
f 92//90 127//90 91//90
f 93//91 128//91 92//91
f 94//92 129//92 93//92
f 95//93 130//93 94//93
f 96//94 131//94 95//94
f 133//95 132//95 97//95
f 134//96 97//96 98//96
f 135//97 98//97 99//97
f 136//98 99//98 100//98
f 137//99 100//99 101//99
f 138//100 101//100 102//100
f 139//101 102//101 103//101
f 140//102 103//102 104//102
f 105//103 140//103 104//103
f 106//104 141//104 105//104
f 143//105 106//105 107//105
f 144//106 107//106 108//106
f 145//107 108//107 109//107
f 146//108 109//108 110//108
f 111//109 146//109 110//109
f 148//110 111//110 112//110
f 113//111 148//111 112//111
f 150//112 113//112 114//112
f 151//113 114//113 115//113
f 152//114 115//114 116//114
f 153//115 116//115 117//115
f 154//116 117//116 118//116
f 155//117 118//117 119//117
f 156//118 119//118 120//118
f 157//119 120//119 121//119
f 158//120 121//120 122//120
f 159//121 122//121 123//121
f 160//122 123//122 124//122
f 161//123 124//123 125//123
f 162//124 125//124 126//124
f 163//125 126//125 127//125
f 164//126 127//126 128//126
f 165//127 128//127 129//127
f 130//128 165//128 129//128
f 167//129 130//129 131//129
f 168//130 131//130 132//130
f 169//131 168//131 133//131
f 170//132 133//132 134//132
f 171//133 134//133 135//133
f 172//134 135//134 136//134
f 173//135 136//135 137//135
f 174//136 137//136 138//136
f 175//137 138//137 139//137
f 176//138 139//138 140//138
f 177//139 140//139 141//139
f 142//140 177//140 141//140
f 143//141 178//141 142//141
f 144//142 179//142 143//142
f 145//143 180//143 144//143
f 146//144 181//144 145//144
f 147//145 182//145 146//145
f 148//146 183//146 147//146
f 149//147 184//147 148//147
f 150//148 185//148 149//148
f 151//149 186//149 150//149
f 152//150 187//150 151//150
f 153//151 188//151 152//151
f 154//152 189//152 153//152
f 155//153 190//153 154//153
f 156//154 191//154 155//154
f 157//155 192//155 156//155
f 158//156 193//156 157//156
f 159//157 194//157 158//157
f 196//158 159//158 160//158
f 197//159 160//159 161//159
f 198//160 161//160 162//160
f 199//161 162//161 163//161
f 200//162 163//162 164//162
f 201//163 164//163 165//163
f 202//164 165//164 166//164
f 203//165 166//165 167//165
f 204//166 167//166 168//166
f 61//167 97//167 132//167
f 62//168 98//168 97//168
f 63//169 99//169 98//169
f 64//170 100//170 99//170
f 65//171 101//171 100//171
f 66//172 102//172 101//172
f 67//173 103//173 102//173
f 68//174 104//174 103//174
f 69//175 105//175 104//175
f 106//176 105//176 69//176
f 107//177 106//177 70//177
f 108//178 107//178 71//178
f 109//179 108//179 72//179
f 110//180 109//180 73//180
f 111//181 110//181 74//181
f 112//182 111//182 75//182
f 113//183 112//183 76//183
f 114//184 113//184 77//184
f 115//185 114//185 78//185
f 116//186 115//186 79//186
f 117//187 116//187 80//187
f 118//188 117//188 81//188
f 119//189 118//189 82//189
f 120//190 119//190 83//190
f 121//191 120//191 84//191
f 122//192 121//192 85//192
f 123//193 122//193 86//193
f 88//194 124//194 123//194
f 89//195 125//195 124//195
f 90//196 126//196 125//196
f 91//197 127//197 126//197
f 92//198 128//198 127//198
f 93//199 129//199 128//199
f 94//200 130//200 129//200
f 95//201 131//201 130//201
f 96//202 132//202 131//202
f 133//95 168//95 132//95
f 134//203 133//203 97//203
f 135//204 134//204 98//204
f 136//98 135//98 99//98
f 137//205 136//205 100//205
f 138//206 137//206 101//206
f 139//101 138//101 102//101
f 140//102 139//102 103//102
f 105//207 141//207 140//207
f 106//208 142//208 141//208
f 143//105 142//105 106//105
f 144//106 143//106 107//106
f 145//209 144//209 108//209
f 146//210 145//210 109//210
f 111//109 147//109 146//109
f 148//110 147//110 111//110
f 113//111 149//111 148//111
f 150//112 149//112 113//112
f 151//113 150//113 114//113
f 152//211 151//211 115//211
f 153//115 152//115 116//115
f 154//116 153//116 117//116
f 155//212 154//212 118//212
f 156//118 155//118 119//118
f 157//119 156//119 120//119
f 158//120 157//120 121//120
f 159//213 158//213 122//213
f 160//122 159//122 123//122
f 161//123 160//123 124//123
f 162//124 161//124 125//124
f 163//125 162//125 126//125
f 164//214 163//214 127//214
f 165//127 164//127 128//127
f 130//215 166//215 165//215
f 167//216 166//216 130//216
f 168//130 167//130 131//130
f 169//217 204//217 168//217
f 170//218 169//218 133//218
f 171//219 170//219 134//219
f 172//220 171//220 135//220
f 173//221 172//221 136//221
f 174//222 173//222 137//222
f 175//223 174//223 138//223
f 176//224 175//224 139//224
f 177//225 176//225 140//225
f 142//226 178//226 177//226
f 143//227 179//227 178//227
f 144//228 180//228 179//228
f 145//229 181//229 180//229
f 146//230 182//230 181//230
f 147//231 183//231 182//231
f 148//232 184//232 183//232
f 149//233 185//233 184//233
f 150//234 186//234 185//234
f 151//235 187//235 186//235
f 152//236 188//236 187//236
f 153//237 189//237 188//237
f 154//238 190//238 189//238
f 155//239 191//239 190//239
f 156//240 192//240 191//240
f 157//241 193//241 192//241
f 158//242 194//242 193//242
f 159//243 195//243 194//243
f 196//244 195//244 159//244
f 197//245 196//245 160//245
f 198//246 197//246 161//246
f 199//247 198//247 162//247
f 200//248 199//248 163//248
f 201//249 200//249 164//249
f 202//250 201//250 165//250
f 203//251 202//251 166//251
f 204//252 203//252 167//252
