# Blender v2.79 (sub 0) OBJ File: 'rightsoccergoal_unit.blend'
# www.blender.org
mtllib rightsoccergoal.mtl
o NetInner_NetInnerCube
v -0.495413 0.000000 0.000000
v -0.495413 0.943182 0.000000
v -0.495413 0.000000 -0.926471
v -0.495413 0.943182 -0.926471
v 0.495413 0.000000 0.000000
v 0.495413 0.943182 0.000000
v 0.495413 0.000000 -0.926471
v 0.495413 0.943182 -0.926471
vt 0.185012 0.006266
vt 0.000065 0.249009
vt 0.000065 0.006266
vt 0.814988 0.006266
vt 0.185012 0.249009
vt 0.999935 0.006266
vt 0.814988 0.249009
vt 0.814988 0.433956
vt 0.999935 0.249009
vt 0.185012 0.433956
vn 1.0000 0.0000 0.0000
vn 0.0000 0.0000 1.0000
vn -1.0000 0.0000 0.0000
vn 0.0000 -1.0000 0.0000
usemtl naogoalnet
s off
f 3/1/1 2/2/1 1/3/1
f 7/4/2 4/5/2 3/1/2
f 5/6/3 8/7/3 7/4/3
f 6/8/4 4/5/4 8/7/4
f 3/1/1 4/5/1 2/2/1
f 7/4/2 8/7/2 4/5/2
f 5/6/3 6/9/3 8/7/3
f 6/8/4 2/10/4 4/5/4
o NetOuter_NetOuterCube
v -0.500000 0.000000 0.000000
v -0.500000 0.954545 0.000000
v -0.500000 0.000000 -0.941176
v -0.500000 0.954545 -0.941176
v 0.500000 0.000000 0.000000
v 0.500000 0.954545 0.000000
v 0.500000 0.000000 -0.941176
v 0.500000 0.954545 -0.941176
vt 0.999934 0.249092
vt 0.814244 0.006266
vt 0.999934 0.006266
vt 0.814245 0.249092
vt 0.185755 0.006267
vt 0.185755 0.249092
vt 0.000065 0.006267
vt 0.185755 0.434782
vt 0.000066 0.249092
vt 0.814245 0.434782
vn -1.0000 0.0000 0.0000
vn 0.0000 0.0000 -1.0000
vn 1.0000 0.0000 0.0000
vn 0.0000 1.0000 0.0000
usemtl naogoalnet
s off
f 10/11/5 11/12/5 9/13/5
f 12/14/6 15/15/6 11/12/6
f 16/16/7 13/17/7 15/15/7
f 12/14/8 14/18/8 16/16/8
f 10/11/5 12/14/5 11/12/5
f 12/14/6 16/16/6 15/15/6
f 16/16/7 14/19/7 13/17/7
f 12/14/8 10/20/8 14/18/8
o Groundring_GroundringTube
v -0.508725 0.007023 0.000000
v -0.507422 0.013359 0.000000
v -0.505393 0.018387 0.000000
v -0.502835 0.021615 0.000000
v -0.500000 0.022727 -0.000000
v -0.497165 0.021615 -0.000000
v -0.494607 0.018387 -0.000000
v -0.492578 0.013359 -0.000000
v -0.491275 0.007023 -0.000000
v -0.490826 -0.000000 -0.000000
v -0.509174 0.000000 0.000000
v -0.508725 0.007023 -0.969149
v -0.507422 0.013359 -0.964971
v -0.505393 0.018387 -0.958464
v -0.502835 0.021615 -0.950265
v -0.500000 0.022727 -0.941176
v -0.497165 0.021615 -0.932088
v -0.494607 0.018387 -0.923889
v -0.492578 0.013359 -0.917382
v -0.491275 0.007023 -0.913204
v -0.490826 -0.000000 -0.911765
v -0.509174 0.000000 -0.970588
v 0.508725 0.007023 -0.969149
v 0.507422 0.013359 -0.964971
v 0.505392 0.018387 -0.958464
v 0.502835 0.021615 -0.950265
v 0.500000 0.022727 -0.941176
v 0.497165 0.021615 -0.932088
v 0.494607 0.018387 -0.923889
v 0.492578 0.013359 -0.917382
v 0.491275 0.007023 -0.913204
v 0.490826 -0.000000 -0.911765
v 0.509174 0.000000 -0.970588
v 0.508725 0.007023 0.000000
v 0.507422 0.013359 0.000000
v 0.505392 0.018387 0.000000
v 0.502835 0.021615 0.000000
v 0.500000 0.022727 -0.000000
v 0.497165 0.021615 -0.000000
v 0.494607 0.018387 -0.000000
v 0.492578 0.013359 -0.000000
v 0.491275 0.007023 -0.000000
v 0.490826 -0.000000 -0.000000
v 0.509174 0.000000 0.000000
vn -0.9980 0.0638 0.0000
vn -0.9795 0.2015 0.0000
vn -0.9273 0.3743 0.0000
vn -0.7838 0.6210 0.0000
vn -0.3653 0.9309 0.0000
vn 0.3653 0.9309 0.0000
vn 0.7838 0.6210 0.0000
vn 0.9273 0.3743 0.0000
vn 0.9795 0.2015 0.0000
vn 0.9980 0.0638 0.0000
vn 0.0000 0.2008 -0.9796
vn 0.0000 0.5505 -0.8348
vn 0.0000 0.7913 -0.6114
vn 0.0000 0.9305 -0.3664
vn 0.0000 0.9926 -0.1215
vn 0.0000 0.9926 0.1215
vn 0.0000 0.9305 0.3664
vn 0.0000 0.7913 0.6114
vn 0.0000 0.5505 0.8348
vn 0.0000 0.2008 0.9796
vn 0.3652 0.9309 0.0000
vn -0.3652 0.9309 0.0000
usemtl sky-blue
s off
f 28/1/9 27/1/9 17/1/9
f 29/1/10 17/1/10 18/1/10
f 30/1/11 18/1/11 19/1/11
f 31/1/12 19/1/12 20/1/12
f 32/1/13 20/1/13 21/1/13
f 33/1/14 21/1/14 22/1/14
f 34/1/15 22/1/15 23/1/15
f 35/1/16 23/1/16 24/1/16
f 36/1/17 24/1/17 25/1/17
f 37/1/18 25/1/18 26/1/18
f 39/1/19 38/1/19 28/1/19
f 29/1/20 39/1/20 28/1/20
f 41/1/21 29/1/21 30/1/21
f 42/1/22 30/1/22 31/1/22
f 32/1/23 42/1/23 31/1/23
f 44/1/24 32/1/24 33/1/24
f 45/1/25 33/1/25 34/1/25
f 46/1/26 34/1/26 35/1/26
f 36/1/27 46/1/27 35/1/27
f 48/1/28 36/1/28 37/1/28
f 39/1/18 60/1/18 49/1/18
f 40/1/17 50/1/17 39/1/17
f 41/1/16 51/1/16 40/1/16
f 42/1/15 52/1/15 41/1/15
f 43/1/29 53/1/29 42/1/29
f 44/1/13 54/1/13 43/1/13
f 45/1/12 55/1/12 44/1/12
f 46/1/11 56/1/11 45/1/11
f 47/1/10 57/1/10 46/1/10
f 48/1/9 58/1/9 47/1/9
f 28/1/9 38/1/9 27/1/9
f 29/1/10 28/1/10 17/1/10
f 30/1/11 29/1/11 18/1/11
f 31/1/12 30/1/12 19/1/12
f 32/1/30 31/1/30 20/1/30
f 33/1/14 32/1/14 21/1/14
f 34/1/15 33/1/15 22/1/15
f 35/1/16 34/1/16 23/1/16
f 36/1/17 35/1/17 24/1/17
f 37/1/18 36/1/18 25/1/18
f 39/1/19 49/1/19 38/1/19
f 29/1/20 40/1/20 39/1/20
f 41/1/21 40/1/21 29/1/21
f 42/1/22 41/1/22 30/1/22
f 32/1/23 43/1/23 42/1/23
f 44/1/24 43/1/24 32/1/24
f 45/1/25 44/1/25 33/1/25
f 46/1/26 45/1/26 34/1/26
f 36/1/27 47/1/27 46/1/27
f 48/1/28 47/1/28 36/1/28
f 39/1/18 50/1/18 60/1/18
f 40/1/17 51/1/17 50/1/17
f 41/1/16 52/1/16 51/1/16
f 42/1/15 53/1/15 52/1/15
f 43/1/14 54/1/14 53/1/14
f 44/1/13 55/1/13 54/1/13
f 45/1/12 56/1/12 55/1/12
f 46/1/11 57/1/11 56/1/11
f 47/1/10 58/1/10 57/1/10
f 48/1/9 59/1/9 58/1/9
o Goalposts_GoalpostTube
v -0.518070 0.000000 0.010215
v -0.517242 0.000000 0.020119
v -0.515890 0.000000 0.029412
v -0.514055 0.000000 0.037811
v -0.511794 0.000000 0.045061
v -0.509174 0.000000 0.050943
v -0.506275 0.000000 0.055276
v -0.503186 0.000000 0.057930
v -0.500000 0.000000 0.058823
v -0.496813 0.000000 0.057930
v -0.493724 0.000000 0.055276
v -0.490825 0.000000 0.050943
v -0.488205 0.000000 0.045061
v -0.485944 0.000000 0.037811
v -0.484109 0.000000 0.029412
v -0.482758 0.000000 0.020119
v -0.481930 0.000000 0.010215
v -0.481651 0.000000 -0.000000
v -0.481930 0.000000 -0.010215
v -0.482758 0.000000 -0.020119
v -0.484109 0.000000 -0.029412
v -0.485944 0.000000 -0.037811
v -0.488205 0.000000 -0.045061
v -0.490825 0.000000 -0.050943
v -0.493724 0.000000 -0.055276
v -0.496813 0.000000 -0.057930
v -0.500000 0.000000 -0.058824
v -0.503186 0.000000 -0.057930
v -0.506275 0.000000 -0.055276
v -0.509174 0.000000 -0.050943
v -0.511794 0.000000 -0.045062
v -0.514055 0.000000 -0.037811
v -0.515890 0.000000 -0.029412
v -0.517242 0.000000 -0.020119
v -0.518070 0.000000 -0.010215
v -0.518348 0.000000 -0.000000
v -0.518070 0.999309 0.010215
v -0.517242 0.997259 0.020119
v -0.515890 0.993910 0.029412
v -0.514055 0.989366 0.037811
v -0.511794 0.983763 0.045061
v -0.509174 0.977273 0.050943
v -0.506275 0.970092 0.055276
v -0.503186 0.962439 0.057930
v -0.500000 0.954545 0.058824
v -0.496813 0.946652 0.057930
v -0.493724 0.938999 0.055276
v -0.490825 0.931818 0.050943
v -0.488205 0.925328 0.045061
v -0.485944 0.919725 0.037811
v -0.484109 0.915181 0.029412
v -0.482758 0.911832 0.020119
v -0.481930 0.909781 0.010215
v -0.481651 0.909091 0.000000
v -0.481930 0.909781 -0.010215
v -0.482758 0.911832 -0.020119
v -0.484109 0.915181 -0.029412
v -0.485944 0.919725 -0.037811
v -0.488205 0.925328 -0.045061
v -0.490825 0.931818 -0.050943
v -0.493724 0.938999 -0.055276
v -0.496813 0.946652 -0.057930
v -0.500000 0.954545 -0.058824
v -0.503186 0.962439 -0.057930
v -0.506275 0.970092 -0.055276
v -0.509174 0.977273 -0.050943
v -0.511794 0.983763 -0.045061
v -0.514055 0.989366 -0.037811
v -0.515890 0.993910 -0.029412
v -0.517242 0.997259 -0.020119
v -0.518070 0.999309 -0.010215
v -0.518348 1.000000 -0.000000
v 0.518070 0.999309 0.010215
v 0.517242 0.997259 0.020119
v 0.515891 0.993910 0.029412
v 0.514056 0.989366 0.037811
v 0.511795 0.983763 0.045061
v 0.509175 0.977273 0.050943
v 0.506276 0.970092 0.055276
v 0.503187 0.962439 0.057930
v 0.500000 0.954545 0.058824
v 0.496814 0.946652 0.057930
v 0.493725 0.938999 0.055276
v 0.490826 0.931818 0.050943
v 0.488206 0.925328 0.045061
v 0.485944 0.919725 0.037811
v 0.484110 0.915181 0.029412
v 0.482758 0.911832 0.020119
v 0.481931 0.909781 0.010215
v 0.481652 0.909091 0.000000
v 0.481931 0.909781 -0.010215
v 0.482758 0.911832 -0.020119
v 0.484110 0.915181 -0.029412
v 0.485944 0.919725 -0.037811
v 0.488206 0.925328 -0.045061
v 0.490826 0.931818 -0.050943
v 0.493725 0.938999 -0.055276
v 0.496814 0.946652 -0.057930
v 0.500000 0.954545 -0.058824
v 0.503187 0.962439 -0.057930
v 0.506276 0.970092 -0.055276
v 0.509175 0.977273 -0.050943
v 0.511795 0.983763 -0.045061
v 0.514056 0.989366 -0.037811
v 0.515891 0.993910 -0.029412
v 0.517242 0.997259 -0.020119
v 0.518070 0.999309 -0.010215
v 0.518349 1.000000 -0.000000
v 0.518070 0.000000 0.010215
v 0.517242 0.000000 0.020119
v 0.515891 0.000000 0.029412
v 0.514056 0.000000 0.037811
v 0.511795 0.000000 0.045061
v 0.509175 0.000000 0.050943
v 0.506276 0.000000 0.055276
v 0.503187 0.000000 0.057930
v 0.500000 0.000000 0.058823
v 0.496814 0.000000 0.057930
v 0.493725 0.000000 0.055276
v 0.490826 0.000000 0.050943
v 0.488206 0.000000 0.045061
v 0.485944 0.000000 0.037811
v 0.484110 0.000000 0.029412
v 0.482758 0.000000 0.020119
v 0.481931 0.000000 0.010215
v 0.481652 0.000000 -0.000000
v 0.481931 0.000000 -0.010215
v 0.482758 0.000000 -0.020119
v 0.484110 0.000000 -0.029412
v 0.485944 0.000000 -0.037811
v 0.488206 0.000000 -0.045061
v 0.490826 0.000000 -0.050943
v 0.493725 0.000000 -0.055276
v 0.496814 0.000000 -0.057930
v 0.500000 0.000000 -0.058824
v 0.503187 0.000000 -0.057930
v 0.506276 0.000000 -0.055276
v 0.509175 0.000000 -0.050943
v 0.511795 0.000000 -0.045062
v 0.514056 0.000000 -0.037811
v 0.515891 0.000000 -0.029412
v 0.517242 0.000000 -0.020119
v 0.518070 0.000000 -0.010215
v 0.518349 0.000000 -0.000000
vn -0.9996 0.0000 0.0273
vn -0.9965 0.0000 0.0833
vn -0.9896 -0.0000 0.1439
vn -0.9770 -0.0000 0.2134
vn -0.9546 0.0000 0.2978
vn -0.9135 0.0000 0.4069
vn -0.8312 -0.0000 0.5560
vn -0.6516 0.0000 0.7585
vn -0.2701 -0.0000 0.9628
vn 0.2701 -0.0000 0.9628
vn 0.6516 0.0000 0.7586
vn 0.8312 0.0000 0.5560
vn 0.9135 -0.0000 0.4069
vn 0.9546 -0.0000 0.2978
vn 0.9770 -0.0000 0.2134
vn 0.9896 -0.0000 0.1439
vn 0.9965 0.0000 0.0833
vn 0.9996 0.0000 0.0273
vn 0.9996 0.0000 -0.0273
vn 0.9965 -0.0000 -0.0833
vn 0.9896 0.0000 -0.1439
vn 0.9770 -0.0000 -0.2134
vn 0.9546 -0.0000 -0.2978
vn 0.9135 0.0000 -0.4069
vn 0.8312 0.0000 -0.5560
vn 0.6516 0.0000 -0.7585
vn 0.2701 0.0000 -0.9628
vn -0.2701 0.0000 -0.9628
vn -0.6516 0.0000 -0.7586
vn -0.8312 0.0000 -0.5560
vn -0.9135 0.0000 -0.4069
vn -0.9546 -0.0000 -0.2978
vn -0.9770 -0.0000 -0.2134
vn -0.9896 0.0000 -0.1439
vn -0.9965 -0.0000 -0.0833
vn -0.9996 -0.0000 -0.0273
vn 0.0000 0.9977 0.0674
vn 0.0000 0.9792 0.2028
vn 0.0000 0.9408 0.3390
vn 0.0000 0.8795 0.4759
vn 0.0000 0.7913 0.6114
vn 0.0000 0.6715 0.7410
vn 0.0000 0.5167 0.8562
vn 0.0000 0.3276 0.9448
vn 0.0000 0.1125 0.9937
vn 0.0000 -0.1125 0.9937
vn 0.0000 -0.3276 0.9448
vn 0.0000 -0.5167 0.8562
vn 0.0000 -0.6715 0.7410
vn 0.0000 -0.7913 0.6115
vn 0.0000 -0.8795 0.4759
vn 0.0000 -0.9408 0.3390
vn 0.0000 -0.9792 0.2028
vn 0.0000 -0.9977 0.0675
vn 0.0000 -0.9977 -0.0674
vn 0.0000 -0.9792 -0.2028
vn 0.0000 -0.9408 -0.3390
vn 0.0000 -0.8795 -0.4759
vn 0.0000 -0.7913 -0.6114
vn 0.0000 -0.6715 -0.7410
vn 0.0000 -0.5167 -0.8562
vn 0.0000 -0.3276 -0.9448
vn 0.0000 -0.1125 -0.9937
vn 0.0000 0.1125 -0.9937
vn 0.0000 0.3276 -0.9448
vn 0.0000 0.5167 -0.8562
vn 0.0000 0.6715 -0.7410
vn 0.0000 0.7913 -0.6114
vn 0.0000 0.8795 -0.4759
vn 0.0000 0.9408 -0.3390
vn 0.0000 0.9792 -0.2027
vn 0.0000 0.9977 -0.0675
vn -0.6516 0.0000 -0.7585
vn -0.2700 0.0000 -0.9628
vn 0.6516 0.0000 -0.7586
vn 0.0000 0.9977 0.0675
vn 0.0000 -0.7913 0.6114
vn 0.0000 -0.9792 0.2027
vn 0.0000 -0.9977 -0.0675
vn 0.0000 0.9792 -0.2028
vn 0.0000 0.9977 -0.0674
vn 0.2700 0.0000 -0.9628
usemtl sky-blue
s off
f 97/1/31 96/1/31 61/1/31
f 98/1/32 61/1/32 62/1/32
f 99/1/33 62/1/33 63/1/33
f 100/1/34 63/1/34 64/1/34
f 101/1/35 64/1/35 65/1/35
f 102/1/36 65/1/36 66/1/36
f 103/1/37 66/1/37 67/1/37
f 104/1/38 67/1/38 68/1/38
f 105/1/39 68/1/39 69/1/39
f 106/1/40 69/1/40 70/1/40
f 107/1/41 70/1/41 71/1/41
f 108/1/42 71/1/42 72/1/42
f 109/1/43 72/1/43 73/1/43
f 110/1/44 73/1/44 74/1/44
f 111/1/45 74/1/45 75/1/45
f 112/1/46 75/1/46 76/1/46
f 113/1/47 76/1/47 77/1/47
f 114/1/48 77/1/48 78/1/48
f 79/1/49 114/1/49 78/1/49
f 80/1/50 115/1/50 79/1/50
f 81/1/51 116/1/51 80/1/51
f 82/1/52 117/1/52 81/1/52
f 83/1/53 118/1/53 82/1/53
f 84/1/54 119/1/54 83/1/54
f 85/1/55 120/1/55 84/1/55
f 86/1/56 121/1/56 85/1/56
f 87/1/57 122/1/57 86/1/57
f 88/1/58 123/1/58 87/1/58
f 89/1/59 124/1/59 88/1/59
f 90/1/60 125/1/60 89/1/60
f 91/1/61 126/1/61 90/1/61
f 92/1/62 127/1/62 91/1/62
f 93/1/63 128/1/63 92/1/63
f 94/1/64 129/1/64 93/1/64
f 95/1/65 130/1/65 94/1/65
f 96/1/66 131/1/66 95/1/66
f 133/1/67 132/1/67 97/1/67
f 134/1/68 97/1/68 98/1/68
f 99/1/69 134/1/69 98/1/69
f 136/1/70 99/1/70 100/1/70
f 137/1/71 100/1/71 101/1/71
f 138/1/72 101/1/72 102/1/72
f 139/1/73 102/1/73 103/1/73
f 140/1/74 103/1/74 104/1/74
f 141/1/75 104/1/75 105/1/75
f 142/1/76 105/1/76 106/1/76
f 143/1/77 106/1/77 107/1/77
f 144/1/78 107/1/78 108/1/78
f 145/1/79 108/1/79 109/1/79
f 110/1/80 145/1/80 109/1/80
f 111/1/81 146/1/81 110/1/81
f 148/1/82 111/1/82 112/1/82
f 113/1/83 148/1/83 112/1/83
f 150/1/84 113/1/84 114/1/84
f 115/1/85 150/1/85 114/1/85
f 152/1/86 115/1/86 116/1/86
f 153/1/87 116/1/87 117/1/87
f 154/1/88 117/1/88 118/1/88
f 155/1/89 118/1/89 119/1/89
f 156/1/90 119/1/90 120/1/90
f 157/1/91 120/1/91 121/1/91
f 158/1/92 121/1/92 122/1/92
f 159/1/93 122/1/93 123/1/93
f 160/1/94 123/1/94 124/1/94
f 161/1/95 124/1/95 125/1/95
f 162/1/96 125/1/96 126/1/96
f 163/1/97 126/1/97 127/1/97
f 164/1/98 127/1/98 128/1/98
f 165/1/99 128/1/99 129/1/99
f 166/1/100 129/1/100 130/1/100
f 131/1/101 166/1/101 130/1/101
f 168/1/102 131/1/102 132/1/102
f 133/1/48 204/1/48 168/1/48
f 134/1/47 169/1/47 133/1/47
f 135/1/46 170/1/46 134/1/46
f 136/1/45 171/1/45 135/1/45
f 137/1/44 172/1/44 136/1/44
f 138/1/43 173/1/43 137/1/43
f 139/1/42 174/1/42 138/1/42
f 140/1/41 175/1/41 139/1/41
f 141/1/40 176/1/40 140/1/40
f 142/1/39 177/1/39 141/1/39
f 143/1/38 178/1/38 142/1/38
f 144/1/37 179/1/37 143/1/37
f 145/1/36 180/1/36 144/1/36
f 146/1/35 181/1/35 145/1/35
f 147/1/34 182/1/34 146/1/34
f 148/1/33 183/1/33 147/1/33
f 149/1/32 184/1/32 148/1/32
f 150/1/31 185/1/31 149/1/31
f 187/1/66 150/1/66 151/1/66
f 188/1/65 151/1/65 152/1/65
f 189/1/64 152/1/64 153/1/64
f 190/1/63 153/1/63 154/1/63
f 191/1/62 154/1/62 155/1/62
f 192/1/61 155/1/61 156/1/61
f 193/1/60 156/1/60 157/1/60
f 194/1/103 157/1/103 158/1/103
f 195/1/104 158/1/104 159/1/104
f 196/1/57 159/1/57 160/1/57
f 197/1/105 160/1/105 161/1/105
f 198/1/55 161/1/55 162/1/55
f 199/1/54 162/1/54 163/1/54
f 200/1/53 163/1/53 164/1/53
f 201/1/52 164/1/52 165/1/52
f 202/1/51 165/1/51 166/1/51
f 203/1/50 166/1/50 167/1/50
f 204/1/49 167/1/49 168/1/49
f 97/1/31 132/1/31 96/1/31
f 98/1/32 97/1/32 61/1/32
f 99/1/33 98/1/33 62/1/33
f 100/1/34 99/1/34 63/1/34
f 101/1/35 100/1/35 64/1/35
f 102/1/36 101/1/36 65/1/36
f 103/1/37 102/1/37 66/1/37
f 104/1/38 103/1/38 67/1/38
f 105/1/39 104/1/39 68/1/39
f 106/1/40 105/1/40 69/1/40
f 107/1/41 106/1/41 70/1/41
f 108/1/42 107/1/42 71/1/42
f 109/1/43 108/1/43 72/1/43
f 110/1/44 109/1/44 73/1/44
f 111/1/45 110/1/45 74/1/45
f 112/1/46 111/1/46 75/1/46
f 113/1/47 112/1/47 76/1/47
f 114/1/48 113/1/48 77/1/48
f 79/1/49 115/1/49 114/1/49
f 80/1/50 116/1/50 115/1/50
f 81/1/51 117/1/51 116/1/51
f 82/1/52 118/1/52 117/1/52
f 83/1/53 119/1/53 118/1/53
f 84/1/54 120/1/54 119/1/54
f 85/1/55 121/1/55 120/1/55
f 86/1/56 122/1/56 121/1/56
f 87/1/57 123/1/57 122/1/57
f 88/1/58 124/1/58 123/1/58
f 89/1/59 125/1/59 124/1/59
f 90/1/60 126/1/60 125/1/60
f 91/1/61 127/1/61 126/1/61
f 92/1/62 128/1/62 127/1/62
f 93/1/63 129/1/63 128/1/63
f 94/1/64 130/1/64 129/1/64
f 95/1/65 131/1/65 130/1/65
f 96/1/66 132/1/66 131/1/66
f 133/1/106 168/1/106 132/1/106
f 134/1/68 133/1/68 97/1/68
f 99/1/69 135/1/69 134/1/69
f 136/1/70 135/1/70 99/1/70
f 137/1/71 136/1/71 100/1/71
f 138/1/72 137/1/72 101/1/72
f 139/1/73 138/1/73 102/1/73
f 140/1/74 139/1/74 103/1/74
f 141/1/75 140/1/75 104/1/75
f 142/1/76 141/1/76 105/1/76
f 143/1/77 142/1/77 106/1/77
f 144/1/78 143/1/78 107/1/78
f 145/1/79 144/1/79 108/1/79
f 110/1/107 146/1/107 145/1/107
f 111/1/81 147/1/81 146/1/81
f 148/1/82 147/1/82 111/1/82
f 113/1/108 149/1/108 148/1/108
f 150/1/84 149/1/84 113/1/84
f 115/1/109 151/1/109 150/1/109
f 152/1/86 151/1/86 115/1/86
f 153/1/87 152/1/87 116/1/87
f 154/1/88 153/1/88 117/1/88
f 155/1/89 154/1/89 118/1/89
f 156/1/90 155/1/90 119/1/90
f 157/1/91 156/1/91 120/1/91
f 158/1/92 157/1/92 121/1/92
f 159/1/93 158/1/93 122/1/93
f 160/1/94 159/1/94 123/1/94
f 161/1/95 160/1/95 124/1/95
f 162/1/96 161/1/96 125/1/96
f 163/1/97 162/1/97 126/1/97
f 164/1/98 163/1/98 127/1/98
f 165/1/99 164/1/99 128/1/99
f 166/1/100 165/1/100 129/1/100
f 131/1/110 167/1/110 166/1/110
f 168/1/111 167/1/111 131/1/111
f 133/1/48 169/1/48 204/1/48
f 134/1/47 170/1/47 169/1/47
f 135/1/46 171/1/46 170/1/46
f 136/1/45 172/1/45 171/1/45
f 137/1/44 173/1/44 172/1/44
f 138/1/43 174/1/43 173/1/43
f 139/1/42 175/1/42 174/1/42
f 140/1/41 176/1/41 175/1/41
f 141/1/40 177/1/40 176/1/40
f 142/1/39 178/1/39 177/1/39
f 143/1/38 179/1/38 178/1/38
f 144/1/37 180/1/37 179/1/37
f 145/1/36 181/1/36 180/1/36
f 146/1/35 182/1/35 181/1/35
f 147/1/34 183/1/34 182/1/34
f 148/1/33 184/1/33 183/1/33
f 149/1/32 185/1/32 184/1/32
f 150/1/31 186/1/31 185/1/31
f 187/1/66 186/1/66 150/1/66
f 188/1/65 187/1/65 151/1/65
f 189/1/64 188/1/64 152/1/64
f 190/1/63 189/1/63 153/1/63
f 191/1/62 190/1/62 154/1/62
f 192/1/61 191/1/61 155/1/61
f 193/1/60 192/1/60 156/1/60
f 194/1/103 193/1/103 157/1/103
f 195/1/104 194/1/104 158/1/104
f 196/1/112 195/1/112 159/1/112
f 197/1/105 196/1/105 160/1/105
f 198/1/55 197/1/55 161/1/55
f 199/1/54 198/1/54 162/1/54
f 200/1/53 199/1/53 163/1/53
f 201/1/52 200/1/52 164/1/52
f 202/1/51 201/1/51 165/1/51
f 203/1/50 202/1/50 166/1/50
f 204/1/49 203/1/49 167/1/49
